<svg width="937" height="865" viewBox="0 0 937 865" fill="none" xmlns="http://www.w3.org/2000/svg">
<path d="M485.797 1.19887C467.944 0.435797 450.606 7.29081 438.101 20.0569L433.955 24.2901C398.429 60.558 418.196 121.798 468.221 130.452L822.79 191.793C844.987 195.633 867.546 187.329 881.956 170.012L922.613 121.153C955.965 81.0731 928.971 20.1402 876.876 17.9137L485.797 1.19887Z" fill="#F5F8FF"/>
<path d="M126.816 690.282L237.574 251.272C253.138 189.582 313.18 149.942 376.024 159.867L843.433 233.686C914.824 244.961 961.152 315.066 943.535 385.162L834.586 818.645C818.733 881.72 756.517 921.553 692.597 909.55L607.603 893.591C537.135 880.36 492.876 809.904 511.544 740.678L619.315 341.046C625.177 319.306 633.476 300.53 621.401 281.525C607.753 260.044 575.474 306.012 568.774 330.565L456.817 740.839C439.992 802.495 378.751 840.994 315.895 829.427L204.431 808.916C149.426 798.794 114.059 744.735 126.816 690.282Z" fill="#F5F8FF"/>
</svg>
