<svg width="141" height="24" viewBox="0 0 141 24" fill="none" xmlns="http://www.w3.org/2000/svg">
<path d="M44.08 5.88V17H42.256V12.136H37.024V17H35.2V5.88H37.024V10.648H42.256V5.88H44.08ZM53.1853 14.728H48.5293L47.7293 17H45.8253L49.8093 5.864H51.9213L55.9053 17H53.9853L53.1853 14.728ZM52.6733 13.24L50.8653 8.072L49.0413 13.24H52.6733ZM59.4615 15.528H63.2215V17H57.6375V5.88H59.4615V15.528ZM69.8189 17.112C68.7842 17.112 67.8295 16.872 66.9549 16.392C66.0909 15.9013 65.4029 15.224 64.8909 14.36C64.3895 13.4853 64.1389 12.504 64.1389 11.416C64.1389 10.328 64.3895 9.352 64.8909 8.488C65.4029 7.624 66.0909 6.952 66.9549 6.472C67.8295 5.98133 68.7842 5.736 69.8189 5.736C70.8642 5.736 71.8189 5.98133 72.6829 6.472C73.5575 6.952 74.2455 7.624 74.7469 8.488C75.2482 9.352 75.4989 10.328 75.4989 11.416C75.4989 12.504 75.2482 13.4853 74.7469 14.36C74.2455 15.224 73.5575 15.9013 72.6829 16.392C71.8189 16.872 70.8642 17.112 69.8189 17.112ZM69.8189 15.528C70.5549 15.528 71.2109 15.3627 71.7869 15.032C72.3629 14.6907 72.8109 14.2107 73.1309 13.592C73.4615 12.9627 73.6269 12.2373 73.6269 11.416C73.6269 10.5947 73.4615 9.87467 73.1309 9.256C72.8109 8.63733 72.3629 8.16267 71.7869 7.832C71.2109 7.50133 70.5549 7.336 69.8189 7.336C69.0829 7.336 68.4269 7.50133 67.8509 7.832C67.2749 8.16267 66.8215 8.63733 66.4909 9.256C66.1709 9.87467 66.0109 10.5947 66.0109 11.416C66.0109 12.2373 66.1709 12.9627 66.4909 13.592C66.8215 14.2107 67.2749 14.6907 67.8509 15.032C68.4269 15.3627 69.0829 15.528 69.8189 15.528ZM93.162 5.88V17H91.338V9.384L87.946 17H86.682L83.274 9.384V17H81.45V5.88H83.418L87.322 14.6L91.21 5.88H93.162ZM102.263 14.728H97.6074L96.8074 17H94.9034L98.8874 5.864H100.999L104.983 17H103.063L102.263 14.728ZM101.751 13.24L99.9434 8.072L98.1194 13.24H101.751ZM115.852 17H114.028L108.54 8.696V17H106.716V5.864H108.54L114.028 14.152V5.864H115.852V17ZM125.431 5.88V7.368H122.471V17H120.647V7.368H117.671V5.88H125.431ZM133.054 17L130.494 12.552H129.102V17H127.278V5.88H131.118C131.971 5.88 132.691 6.02933 133.278 6.328C133.875 6.62667 134.318 7.02667 134.606 7.528C134.905 8.02933 135.054 8.58933 135.054 9.208C135.054 9.93333 134.841 10.5947 134.414 11.192C133.998 11.7787 133.353 12.1787 132.478 12.392L135.23 17H133.054ZM129.102 11.096H131.118C131.801 11.096 132.313 10.9253 132.654 10.584C133.006 10.2427 133.182 9.784 133.182 9.208C133.182 8.632 133.011 8.184 132.67 7.864C132.329 7.53333 131.811 7.368 131.118 7.368H129.102V11.096ZM139.212 5.88V17H137.388V5.88H139.212Z" fill="black"/>
<g clip-path="url(#clip0)">
<path fill-rule="evenodd" clip-rule="evenodd" d="M9 4.75C8.53827 4.75 8.13403 4.99996 7.91677 5.37554C7.70936 5.73409 7.25057 5.85661 6.89202 5.6492C6.53347 5.4418 6.41095 4.983 6.61836 4.62446C7.09272 3.80444 7.98117 3.25 9 3.25C10.5188 3.25 11.75 4.48122 11.75 6C11.75 7.51878 10.5188 8.75 9 8.75H4C3.58579 8.75 3.25 8.41421 3.25 8C3.25 7.58579 3.58579 7.25 4 7.25H9C9.69036 7.25 10.25 6.69036 10.25 6C10.25 5.30964 9.69036 4.75 9 4.75Z" fill="#215EE9"/>
<path fill-rule="evenodd" clip-rule="evenodd" d="M17 6.75C16.0215 6.75 15.1871 7.37503 14.8778 8.24993C14.7398 8.64047 14.3113 8.84517 13.9208 8.70713C13.5302 8.56909 13.3255 8.1406 13.4636 7.75007C13.978 6.29459 15.3661 5.25 17 5.25C19.0711 5.25 20.75 6.92893 20.75 9C20.75 11.0711 19.0711 12.75 17 12.75H4C3.58579 12.75 3.25 12.4142 3.25 12C3.25 11.5858 3.58579 11.25 4 11.25H17C18.2426 11.25 19.25 10.2426 19.25 9C19.25 7.75736 18.2426 6.75 17 6.75Z" fill="#215EE9"/>
<path fill-rule="evenodd" clip-rule="evenodd" d="M10 3H14C15.1046 3 16 3.89543 16 5V6H20C21.1046 6 22 6.89543 22 8V19C22 20.1046 21.1046 21 20 21H4C2.89543 21 2 20.1046 2 19V8C2 6.89543 2.89543 6 4 6H8V5C8 3.89543 8.89543 3 10 3ZM4 8H8H16H20V13H13H11H4V8ZM4 19V15H11V16H13V15H20V19H4ZM14 5V6H10V5H14Z" fill="black"/>
<path d="M0 0V-1H-1V0H0ZM24 0H25V-1H24V0ZM24 24V25H25V24H24ZM0 24H-1V25H0V24ZM0 1H24V-1H0V1ZM23 0V24H25V0H23ZM24 23H0V25H24V23ZM1 24V0H-1V24H1Z" fill="black"/>
</g>
<defs>
<clipPath id="clip0">
<rect width="24" height="24" fill="white"/>
</clipPath>
</defs>
</svg>
