<svg width="24" height="24" viewBox="0 0 24 24" fill="none" xmlns="http://www.w3.org/2000/svg">
<g clip-path="url(#clip0)">
<path fill-rule="evenodd" clip-rule="evenodd" d="M9 4.75C8.53827 4.75 8.13403 4.99996 7.91677 5.37554C7.70936 5.73409 7.25057 5.85661 6.89202 5.6492C6.53347 5.4418 6.41095 4.983 6.61836 4.62446C7.09272 3.80444 7.98117 3.25 9 3.25C10.5188 3.25 11.75 4.48122 11.75 6C11.75 7.51878 10.5188 8.75 9 8.75H4C3.58579 8.75 3.25 8.41421 3.25 8C3.25 7.58579 3.58579 7.25 4 7.25H9C9.69036 7.25 10.25 6.69036 10.25 6C10.25 5.30964 9.69036 4.75 9 4.75Z" fill="#215EE9"/>
<path fill-rule="evenodd" clip-rule="evenodd" d="M17 6.75C16.0215 6.75 15.1871 7.37503 14.8778 8.24993C14.7398 8.64047 14.3113 8.84517 13.9208 8.70713C13.5302 8.56909 13.3255 8.1406 13.4636 7.75007C13.978 6.29459 15.3661 5.25 17 5.25C19.0711 5.25 20.75 6.92893 20.75 9C20.75 11.0711 19.0711 12.75 17 12.75H4C3.58579 12.75 3.25 12.4142 3.25 12C3.25 11.5858 3.58579 11.25 4 11.25H17C18.2426 11.25 19.25 10.2426 19.25 9C19.25 7.75736 18.2426 6.75 17 6.75Z" fill="#215EE9"/>
<path fill-rule="evenodd" clip-rule="evenodd" d="M10 3H14C15.1046 3 16 3.89543 16 5V6H20C21.1046 6 22 6.89543 22 8V19C22 20.1046 21.1046 21 20 21H4C2.89543 21 2 20.1046 2 19V8C2 6.89543 2.89543 6 4 6H8V5C8 3.89543 8.89543 3 10 3ZM4 8H8H16H20V13H13H11H4V8ZM4 19V15H11V16H13V15H20V19H4ZM14 5V6H10V5H14Z" fill="black"/>
<path d="M0 0V-1H-1V0H0ZM24 0H25V-1H24V0ZM24 24V25H25V24H24ZM0 24H-1V25H0V24ZM0 1H24V-1H0V1ZM23 0V24H25V0H23ZM24 23H0V25H24V23ZM1 24V0H-1V24H1Z" fill="black"/>
</g>
<defs>
<clipPath id="clip0">
<rect width="24" height="24" fill="white"/>
</clipPath>
</defs>
</svg>
